<svg width="33.846191" height="20.307617" viewBox="0 0 33.8462 20.3076" fill="none" xmlns="http://www.w3.org/2000/svg" xmlns:xlink="http://www.w3.org/1999/xlink">
	<desc>
			Created with Pixso.
	</desc>
	<defs/>
	<path id="Vector" d="M33.84 10.15C33.84 15.74 29.33 20.3 23.69 20.3C18.1 20.3 13.53 15.74 13.53 10.15C13.53 4.56 18.05 0 23.63 0C29.33 0 33.84 4.56 33.84 10.15Z" fill="#FFB600" fill-opacity="1.000000" fill-rule="nonzero"/>
	<path id="Vector" d="M23.69 0C29.27 0 33.84 4.56 33.84 10.15C33.84 15.74 29.33 20.3 23.69 20.3C18.1 20.3 13.53 15.74 13.53 10.15L23.69 0Z" fill="#F7981D" fill-opacity="1.000000" fill-rule="nonzero"/>
	<path id="Vector" d="M23.69 0C29.27 0 33.84 4.56 33.84 10.15C33.84 15.74 29.33 20.3 23.69 20.3L23.69 0Z" fill="#FF8500" fill-opacity="1.000000" fill-rule="nonzero"/>
	<path id="Vector" d="M10.04 0C4.51 0.05 0 4.56 0 10.15C0 15.74 4.51 20.3 10.15 20.3C12.78 20.3 15.15 19.28 16.97 17.67C17.35 17.35 17.67 16.97 17.99 16.6L15.9 16.6C15.63 16.27 15.36 15.9 15.15 15.58L18.74 15.58C18.96 15.25 19.17 14.88 19.34 14.5L14.55 14.5C14.39 14.18 14.23 13.8 14.12 13.43L19.71 13.43C20.03 12.41 20.25 11.33 20.25 10.2C20.25 9.45 20.14 8.75 20.03 8.05L13.8 8.05C13.86 7.68 13.96 7.36 14.07 6.98L19.66 6.98C19.55 6.6 19.39 6.23 19.23 5.9L14.5 5.9C14.66 5.53 14.88 5.21 15.09 4.83L18.69 4.83C18.48 4.45 18.21 4.08 17.89 3.76L15.9 3.76C16.22 3.38 16.54 3.06 16.92 2.73C15.15 1.07 12.73 0.1 10.1 0.1C10.1 0 10.1 0 10.04 0Z" fill="#FF5050" fill-opacity="1.000000" fill-rule="nonzero"/>
	<path id="Vector" d="M0 10.15C0 15.74 4.51 20.3 10.15 20.3C12.78 20.3 15.15 19.28 16.97 17.67C17.35 17.35 17.67 16.97 17.99 16.6L15.9 16.6C15.63 16.27 15.36 15.9 15.15 15.58L18.74 15.58C18.96 15.25 19.17 14.88 19.34 14.5L14.55 14.5C14.39 14.18 14.23 13.8 14.12 13.43L19.71 13.43C20.03 12.41 20.25 11.33 20.25 10.2C20.25 9.45 20.14 8.75 20.03 8.05L13.8 8.05C13.86 7.68 13.96 7.36 14.07 6.98L19.66 6.98C19.55 6.6 19.39 6.23 19.23 5.9L14.5 5.9C14.66 5.53 14.88 5.21 15.09 4.83L18.69 4.83C18.48 4.45 18.21 4.08 17.89 3.76L15.9 3.76C16.22 3.38 16.54 3.06 16.92 2.73C15.15 1.07 12.73 0.1 10.1 0.1L10.04 0.1L0 10.15Z" fill="#E52836" fill-opacity="1.000000" fill-rule="nonzero"/>
	<path id="Vector" d="M10.15 20.3C12.78 20.3 15.15 19.28 16.97 17.67C17.35 17.35 17.67 16.97 17.99 16.6L15.9 16.6C15.63 16.27 15.36 15.9 15.15 15.58L18.75 15.58C18.96 15.25 19.18 14.88 19.34 14.5L14.55 14.5C14.39 14.18 14.23 13.8 14.12 13.43L19.71 13.43C20.03 12.41 20.25 11.33 20.25 10.2C20.25 9.45 20.14 8.75 20.03 8.05L13.8 8.05C13.86 7.68 13.96 7.36 14.07 6.98L19.66 6.98C19.55 6.6 19.39 6.23 19.23 5.9L14.5 5.9C14.66 5.53 14.88 5.21 15.09 4.83L18.69 4.83C18.48 4.45 18.21 4.08 17.89 3.76L15.9 3.76C16.22 3.38 16.54 3.06 16.92 2.73C15.15 1.07 12.73 0.1 10.1 0.1L10.04 0.1L10.15 20.3Z" fill="#CB2026" fill-opacity="1.000000" fill-rule="nonzero"/>
	<path id="Vector" d="M13.75 12.73L13.91 11.81C13.85 11.81 13.75 11.87 13.64 11.87C13.26 11.87 13.21 11.65 13.26 11.54L13.59 9.66L14.18 9.66L14.34 8.64L13.8 8.64L13.91 8L12.83 8C12.83 8 12.19 11.54 12.19 11.97C12.19 12.62 12.57 12.89 13.05 12.89C13.37 12.89 13.64 12.78 13.75 12.73Z" fill="#FFFFFF" fill-opacity="1.000000" fill-rule="nonzero"/>
	<path id="Vector" d="M14.13 11.01C14.13 12.51 15.15 12.89 16.01 12.89C16.81 12.89 17.14 12.73 17.14 12.73L17.35 11.71C17.35 11.71 16.76 11.97 16.22 11.97C15.04 11.97 15.26 11.11 15.26 11.11L17.46 11.11C17.46 11.11 17.62 10.42 17.62 10.15C17.62 9.45 17.24 8.59 16.06 8.59C14.93 8.48 14.13 9.66 14.13 11.01ZM16.01 9.45C16.6 9.45 16.49 10.15 16.49 10.2L15.31 10.2C15.31 10.15 15.42 9.45 16.01 9.45Z" fill="#FFFFFF" fill-opacity="1.000000" fill-rule="nonzero"/>
	<path id="Vector" d="M22.84 12.73L23.05 11.54C23.05 11.54 22.51 11.81 22.14 11.81C21.39 11.81 21.06 11.22 21.06 10.58C21.06 9.29 21.71 8.59 22.46 8.59C23 8.59 23.43 8.91 23.43 8.91L23.59 7.78C23.59 7.78 22.94 7.52 22.35 7.52C21.12 7.52 19.88 8.59 19.88 10.63C19.88 11.97 20.53 12.89 21.81 12.89C22.24 12.89 22.84 12.73 22.84 12.73Z" fill="#FFFFFF" fill-opacity="1.000000" fill-rule="nonzero"/>
	<path id="Vector" d="M7.84 8.48C7.09 8.48 6.55 8.7 6.55 8.7L6.39 9.61C6.39 9.61 6.87 9.4 7.57 9.4C7.95 9.4 8.27 9.45 8.27 9.77C8.27 9.99 8.22 10.04 8.22 10.04C8.22 10.04 7.89 10.04 7.73 10.04C6.82 10.04 5.8 10.42 5.8 11.65C5.8 12.62 6.44 12.83 6.82 12.83C7.57 12.83 7.89 12.35 7.95 12.35L7.89 12.78L8.86 12.78L9.29 9.83C9.29 8.54 8.22 8.48 7.84 8.48ZM8.06 10.9C8.06 11.06 7.95 11.92 7.3 11.92C6.98 11.92 6.87 11.65 6.87 11.49C6.87 11.22 7.03 10.85 7.84 10.85C8 10.9 8.06 10.9 8.06 10.9Z" fill="#FFFFFF" fill-opacity="1.000000" fill-rule="nonzero"/>
	<path id="Vector" d="M10.31 12.83C10.58 12.83 11.92 12.89 11.92 11.44C11.92 10.09 10.63 10.36 10.63 9.83C10.63 9.56 10.85 9.45 11.23 9.45C11.39 9.45 11.98 9.5 11.98 9.5L12.14 8.54C12.14 8.54 11.76 8.43 11.12 8.43C10.31 8.43 9.51 8.75 9.51 9.83C9.51 11.06 10.85 10.95 10.85 11.44C10.85 11.76 10.47 11.81 10.2 11.81C9.72 11.81 9.24 11.65 9.24 11.65L9.08 12.62C9.13 12.73 9.4 12.83 10.31 12.83Z" fill="#FFFFFF" fill-opacity="1.000000" fill-rule="nonzero"/>
	<path id="Vector" d="M31.75 7.62L31.54 9.07C31.54 9.07 31.11 8.54 30.52 8.54C29.55 8.54 28.69 9.72 28.69 11.12C28.69 11.97 29.12 12.89 30.03 12.89C30.68 12.89 31.05 12.46 31.05 12.46L31 12.83L32.07 12.83L32.88 7.68L31.75 7.62ZM31.27 10.47C31.27 11.06 31 11.81 30.41 11.81C30.03 11.81 29.82 11.49 29.82 10.95C29.82 10.09 30.19 9.56 30.68 9.56C31.05 9.56 31.27 9.83 31.27 10.47Z" fill="#FFFFFF" fill-opacity="1.000000" fill-rule="nonzero"/>
	<path id="Vector" d="M1.99 12.78L2.63 8.91L2.74 12.78L3.49 12.78L4.89 8.91L4.3 12.78L5.43 12.78L6.29 7.62L4.51 7.62L3.44 10.79L3.38 7.62L1.83 7.62L0.97 12.78L1.99 12.78Z" fill="#FFFFFF" fill-opacity="1.000000" fill-rule="nonzero"/>
	<path id="Vector" d="M18.64 12.78C18.96 11.01 19.02 9.56 19.77 9.83C19.88 9.13 20.04 8.86 20.15 8.59C20.15 8.59 20.09 8.59 19.93 8.59C19.45 8.59 19.07 9.23 19.07 9.23L19.18 8.64L18.16 8.64L17.46 12.83L18.64 12.83L18.64 12.78Z" fill="#FFFFFF" fill-opacity="1.000000" fill-rule="nonzero"/>
	<path id="Vector" d="M25.31 8.48C24.55 8.48 24.02 8.7 24.02 8.7L23.85 9.61C23.85 9.61 24.34 9.4 25.04 9.4C25.41 9.4 25.74 9.45 25.74 9.77C25.74 9.99 25.68 10.04 25.68 10.04C25.68 10.04 25.36 10.04 25.2 10.04C24.29 10.04 23.26 10.42 23.26 11.65C23.26 12.62 23.91 12.83 24.29 12.83C25.04 12.83 25.36 12.35 25.41 12.35L25.36 12.78L26.33 12.78L26.76 9.83C26.81 8.54 25.68 8.48 25.31 8.48ZM25.57 10.9C25.57 11.06 25.47 11.92 24.82 11.92C24.5 11.92 24.39 11.65 24.39 11.49C24.39 11.22 24.55 10.85 25.36 10.85C25.52 10.9 25.52 10.9 25.57 10.9Z" fill="#FFFFFF" fill-opacity="1.000000" fill-rule="nonzero"/>
	<path id="Vector" d="M27.67 12.78C27.99 11.01 28.04 9.56 28.79 9.83C28.9 9.13 29.06 8.86 29.17 8.59C29.17 8.59 29.12 8.59 28.95 8.59C28.47 8.59 28.1 9.23 28.1 9.23L28.2 8.64L27.18 8.64L26.48 12.83L27.67 12.83L27.67 12.78Z" fill="#FFFFFF" fill-opacity="1.000000" fill-rule="nonzero"/>
	<path id="Vector" d="M12.08 11.97C12.08 12.62 12.46 12.89 12.94 12.89C13.32 12.89 13.64 12.78 13.75 12.73L13.91 11.81C13.86 11.81 13.75 11.87 13.64 11.87C13.27 11.87 13.21 11.65 13.27 11.54L13.59 9.66L14.18 9.66L14.34 8.64L13.8 8.64L13.91 8L12.08 11.97Z" fill="#DCE5E5" fill-opacity="1.000000" fill-rule="nonzero"/>
	<path id="Vector" d="M14.66 11.01C14.66 12.51 15.15 12.89 16.01 12.89C16.81 12.89 17.13 12.73 17.13 12.73L17.35 11.71C17.35 11.71 16.76 11.97 16.22 11.97C15.04 11.97 15.25 11.11 15.25 11.11L17.46 11.11C17.46 11.11 17.62 10.42 17.62 10.15C17.62 9.45 17.24 8.59 16.06 8.59C14.93 8.48 14.66 9.66 14.66 11.01ZM16.01 9.45C16.6 9.45 16.7 10.15 16.7 10.2L15.31 10.2C15.31 10.15 15.41 9.45 16.01 9.45Z" fill="#DCE5E5" fill-opacity="1.000000" fill-rule="nonzero"/>
	<path id="Vector" d="M22.83 12.73L23.05 11.54C23.05 11.54 22.51 11.81 22.14 11.81C21.38 11.81 21.06 11.22 21.06 10.58C21.06 9.29 21.71 8.59 22.46 8.59C22.99 8.59 23.42 8.91 23.42 8.91L23.59 7.78C23.59 7.78 22.94 7.52 22.35 7.52C21.11 7.52 20.42 8.59 20.42 10.63C20.42 11.97 20.52 12.89 21.81 12.89C22.24 12.89 22.83 12.73 22.83 12.73Z" fill="#DCE5E5" fill-opacity="1.000000" fill-rule="nonzero"/>
	<path id="Vector" d="M6.39 9.66C6.39 9.66 6.87 9.45 7.57 9.45C7.95 9.45 8.27 9.5 8.27 9.83C8.27 10.04 8.22 10.09 8.22 10.09C8.22 10.09 7.89 10.09 7.73 10.09C6.82 10.09 5.8 10.47 5.8 11.71C5.8 12.67 6.44 12.89 6.82 12.89C7.57 12.89 7.89 12.4 7.95 12.4L7.89 12.83L8.86 12.83L9.29 9.88C9.29 8.64 8.22 8.59 7.79 8.59L6.39 9.66ZM8.59 10.9C8.59 11.06 7.95 11.92 7.3 11.92C6.98 11.92 6.87 11.65 6.87 11.49C6.87 11.22 7.03 10.85 7.84 10.85C8 10.9 8.59 10.9 8.59 10.9Z" fill="#DCE5E5" fill-opacity="1.000000" fill-rule="nonzero"/>
	<path id="Vector" d="M9.13 12.73C9.13 12.73 9.45 12.83 10.37 12.83C10.64 12.83 11.98 12.89 11.98 11.44C11.98 10.09 10.69 10.36 10.69 9.83C10.69 9.56 10.9 9.45 11.28 9.45C11.44 9.45 12.03 9.5 12.03 9.5L12.19 8.54C12.19 8.54 11.82 8.43 11.17 8.43C10.37 8.43 10.1 8.75 10.1 9.83C10.1 11.06 10.9 10.95 10.9 11.44C10.9 11.76 10.53 11.81 10.26 11.81L9.13 12.73Z" fill="#DCE5E5" fill-opacity="1.000000" fill-rule="nonzero"/>
	<path id="Vector" d="M31.53 9.07C31.53 9.07 31.1 8.54 30.51 8.54C29.55 8.54 29.22 9.72 29.22 11.11C29.22 11.97 29.12 12.89 30.03 12.89C30.67 12.89 31.05 12.46 31.05 12.46L31 12.83L32.07 12.83L32.88 7.68L31.53 9.07ZM31.48 10.47C31.48 11.06 31 11.81 30.41 11.81C30.03 11.81 29.81 11.49 29.81 10.95C29.81 10.09 30.19 9.56 30.67 9.56C31.05 9.56 31.48 9.83 31.48 10.47Z" fill="#DCE5E5" fill-opacity="1.000000" fill-rule="nonzero"/>
	<path id="Vector" d="M1.99 12.78L2.63 8.91L2.74 12.78L3.49 12.78L4.89 8.91L4.3 12.78L5.43 12.78L6.29 7.62L4.94 7.62L3.44 10.79L3.38 7.62L2.79 7.62L0.97 12.78L1.99 12.78Z" fill="#DCE5E5" fill-opacity="1.000000" fill-rule="nonzero"/>
	<path id="Vector" d="M17.51 12.78L18.64 12.78C18.96 11.01 19.02 9.56 19.77 9.83C19.88 9.13 20.04 8.86 20.14 8.59C20.14 8.59 20.09 8.59 19.93 8.59C19.45 8.59 19.07 9.23 19.07 9.23L19.18 8.64L17.51 12.78Z" fill="#DCE5E5" fill-opacity="1.000000" fill-rule="nonzero"/>
	<path id="Vector" d="M23.85 9.66C23.85 9.66 24.34 9.45 25.04 9.45C25.41 9.45 25.74 9.5 25.74 9.83C25.74 10.04 25.68 10.09 25.68 10.09C25.68 10.09 25.36 10.09 25.2 10.09C24.29 10.09 23.26 10.47 23.26 11.71C23.26 12.67 23.91 12.89 24.29 12.89C25.04 12.89 25.36 12.4 25.41 12.4L25.36 12.83L26.33 12.83L26.76 9.88C26.76 8.64 25.68 8.59 25.25 8.59L23.85 9.66ZM26.06 10.9C26.06 11.06 25.41 11.92 24.77 11.92C24.45 11.92 24.34 11.65 24.34 11.49C24.34 11.22 24.5 10.85 25.31 10.85C25.52 10.9 26.06 10.9 26.06 10.9Z" fill="#DCE5E5" fill-opacity="1.000000" fill-rule="nonzero"/>
	<path id="Vector" d="M26.54 12.78L27.67 12.78C27.99 11.01 28.05 9.56 28.8 9.83C28.9 9.13 29.07 8.86 29.17 8.59C29.17 8.59 29.12 8.59 28.96 8.59C28.48 8.59 28.1 9.23 28.1 9.23L28.21 8.64L26.54 12.78Z" fill="#DCE5E5" fill-opacity="1.000000" fill-rule="nonzero"/>
</svg>
