<svg width="8.715332" height="14.284546" viewBox="0 0 8.71533 14.2845" fill="none" xmlns="http://www.w3.org/2000/svg" xmlns:xlink="http://www.w3.org/1999/xlink">
	<desc>
			Created with Pixso.
	</desc>
	<defs/>
	<path id="Vector" d="M8.26 7.58L2.2 13.98C2.06 14.12 1.87 14.21 1.66 14.21C1.46 14.22 1.27 14.15 1.12 14.01L0.65 13.56C0.34 13.27 0.33 12.78 0.62 12.48L5.7 7.1L0.32 2.01C0.17 1.87 0.09 1.68 0.08 1.48C0.08 1.27 0.15 1.08 0.29 0.93L0.74 0.46C0.88 0.31 1.07 0.23 1.27 0.22C1.48 0.21 1.67 0.29 1.82 0.43L8.23 6.49C8.37 6.63 8.46 6.82 8.46 7.03C8.47 7.23 8.4 7.43 8.26 7.58Z" fill="#D64374" fill-opacity="1.000000" fill-rule="nonzero"/>
</svg>
