<svg width="14.000000" height="12.386475" viewBox="0 0 16 12.3865" fill="none"
    xmlns="http://www.w3.org/2000/svg" xmlns:xlink="http://www.w3.org/1999/xlink">
    <desc>
        Created with Pixso.
    </desc>
    <defs />
    <path id="Vector"
        d="M2.15 4.55L4.57 4.55C4.75 4.55 4.89 4.41 4.89 4.23C4.89 4.06 4.75 3.92 4.57 3.92L2.15 3.92C1.98 3.92 1.84 4.06 1.84 4.23C1.84 4.41 1.98 4.55 2.15 4.55Z"
        fill="#F98AAB" fill-opacity="1.000000" fill-rule="nonzero" />
    <path id="Vector"
        d="M2.15 6.71L4.57 6.71C4.75 6.71 4.89 6.57 4.89 6.4C4.89 6.23 4.75 6.09 4.57 6.09L2.15 6.09C1.98 6.09 1.84 6.23 1.84 6.4C1.84 6.57 1.98 6.71 2.15 6.71Z"
        fill="#F98AAB" fill-opacity="1.000000" fill-rule="nonzero" />
    <path id="Vector"
        d="M5.15 11.95C5.09 11.79 4.9 11.72 4.75 11.78C4.59 11.85 4.51 12.03 4.58 12.19C4.64 12.35 4.83 12.42 4.98 12.36C5.14 12.29 5.22 12.11 5.15 11.95Z"
        fill="#F98AAB" fill-opacity="1.000000" fill-rule="nonzero" />
    <path id="Vector"
        d="M15.91 7.11L12.19 3.12L13.33 1.99C13.53 1.79 13.64 1.53 13.64 1.25C13.64 0.98 13.53 0.72 13.34 0.53C12.94 0.12 12.29 0.12 11.88 0.52C11.88 0.52 11.88 0.52 11.87 0.52L10.31 2.08L9.73 2.08L9.73 0.88C9.73 0.7 9.59 0.56 9.42 0.56L7.76 0.56L7.76 0.31C7.76 0.13 7.62 0 7.45 0C7.28 0 7.14 0.13 7.14 0.31L7.14 0.56L6 0.56L6 0.31C6 0.13 5.86 0 5.68 0C5.51 0 5.37 0.13 5.37 0.31L5.37 0.56L4.23 0.56L4.23 0.31C4.23 0.13 4.09 0 3.92 0C3.75 0 3.61 0.13 3.61 0.31L3.61 0.56L2.46 0.56L2.46 0.31C2.46 0.13 2.32 0 2.15 0C1.98 0 1.84 0.13 1.84 0.31L1.84 0.56L0.31 0.56C0.14 0.56 0 0.7 0 0.88L0 12.07C0 12.24 0.14 12.38 0.31 12.38L3.5 12.38C3.67 12.38 3.81 12.24 3.81 12.07C3.81 11.9 3.67 11.76 3.5 11.76L0.62 11.76L0.62 1.19L1.84 1.19L1.84 1.47C1.84 1.64 1.98 1.78 2.15 1.78C2.32 1.78 2.46 1.64 2.46 1.47L2.46 1.19L3.61 1.19L3.61 1.47C3.61 1.64 3.75 1.78 3.92 1.78C4.09 1.78 4.23 1.64 4.23 1.47L4.23 1.19L5.37 1.19L5.37 1.47C5.37 1.64 5.51 1.78 5.68 1.78C5.86 1.78 6 1.64 6 1.47L6 1.19L7.14 1.19L7.14 1.47C7.14 1.64 7.28 1.78 7.45 1.78C7.62 1.78 7.76 1.64 7.76 1.47L7.76 1.19L9.11 1.19L9.11 2.08C8.54 2.1 8.01 2.34 7.61 2.73L5.31 5.03C5.17 5.17 5.2 5.41 5.36 5.52C5.62 5.68 5.91 5.79 6.21 5.84C6.32 5.85 6.42 5.86 6.52 5.86C6.52 5.86 6.52 5.86 6.52 5.86L6.16 6.21C6.14 6.24 6.12 6.27 6.1 6.3L5.1 7.81C5.01 7.95 4.97 8.1 4.99 8.25L2.15 8.25C1.98 8.25 1.84 8.39 1.84 8.56C1.84 8.74 1.98 8.88 2.15 8.88L5.67 8.88C5.81 8.88 5.94 8.83 6.05 8.75L7.58 7.72C7.6 7.71 7.61 7.69 7.63 7.68L8.34 6.97L9.11 7.74L9.11 11.76L6.25 11.76C6.07 11.76 5.93 11.9 5.93 12.07C5.93 12.24 6.07 12.38 6.25 12.38L9.42 12.38C9.59 12.38 9.73 12.24 9.73 12.07L9.73 8.35C10.13 8.68 10.62 8.86 11.14 8.86L12.39 8.86C12.64 8.86 12.9 8.97 13.07 9.15L15.46 11.68C15.64 11.88 16 11.75 16 11.47L16 7.33C16 7.25 15.97 7.17 15.91 7.11ZM8.05 3.17C8.36 2.87 8.77 2.7 9.2 2.7L9.69 2.7L7.74 4.64C7.56 4.82 7.39 4.99 7.16 5.09C6.82 5.25 6.42 5.28 6.07 5.16L8.05 3.17ZM12.31 0.96C12.48 0.81 12.74 0.81 12.9 0.97C12.97 1.04 13.01 1.15 13.01 1.25C13.01 1.36 12.97 1.47 12.89 1.55L9.63 4.8L9.47 4.65C9.32 4.5 9.14 4.39 8.93 4.33L12.31 0.96ZM5.7 8.24C5.68 8.26 5.65 8.25 5.63 8.23C5.59 8.2 5.61 8.17 5.62 8.16L6.44 6.93L6.92 7.41L5.7 8.24ZM7.41 7.02L6.83 6.44L7.42 5.84C7.48 6.05 7.59 6.23 7.74 6.38L7.89 6.53L7.41 7.02ZM15.37 10.68L13.53 8.72C13.23 8.41 12.81 8.23 12.39 8.23L11.14 8.23C10.72 8.23 10.32 8.07 10.02 7.77L8.18 5.94C7.92 5.74 7.97 5.3 8.18 5.09C8.41 4.86 8.8 4.86 9.03 5.09L10.52 6.58C10.64 6.7 10.84 6.7 10.96 6.58C11.09 6.46 11.09 6.26 10.96 6.14L10.07 5.25L11.75 3.57L15.37 7.45L15.37 10.68Z"
        fill="#F98AAB" fill-opacity="1.000000" fill-rule="nonzero" />
</svg>