<svg width="32.000000" height="42.006287" viewBox="0 0 32 42.0063" fill="none" xmlns="http://www.w3.org/2000/svg" xmlns:xlink="http://www.w3.org/1999/xlink">
	<desc>
			Created with Pixso.
	</desc>
	<defs>
		<linearGradient x1="15.997444" y1="42.006290" x2="15.997444" y2="0.000000" id="paint_linear_1_154_0" gradientUnits="userSpaceOnUse">
			<stop stop-color="#FD3A84"/>
			<stop offset="1.000000" stop-color="#FFA68D"/>
		</linearGradient>
		<linearGradient x1="15.999979" y1="34.622395" x2="15.999979" y2="12.470642" id="paint_linear_1_157_0" gradientUnits="userSpaceOnUse">
			<stop stop-color="#FFC2CC"/>
			<stop offset="1.000000" stop-color="#FFF2F4"/>
		</linearGradient>
	</defs>
	<path id="Vector" d="M15.88 18.62L2.31 21.08L7.4 41.07C7.55 41.61 8.04 42 8.61 42L23.38 42C23.94 42 24.43 41.61 24.58 41.07L29.68 21.08L15.88 18.62ZM13.53 14.93C14.21 14.93 14.76 14.38 14.76 13.7L14.76 1.23C14.76 0.55 14.21 0 13.53 0C12.85 0 12.3 0.55 12.3 1.23L12.3 13.7C12.3 14.38 12.85 14.93 13.53 14.93ZM18.45 14.93C19.13 14.93 19.68 14.38 19.68 13.7L19.68 1.23C19.68 0.55 19.13 0 18.45 0C17.77 0 17.22 0.55 17.22 1.23L17.22 13.7C17.22 14.38 17.77 14.93 18.45 14.93Z" fill="url(#paint_linear_1_154_0)" fill-opacity="1.000000" fill-rule="nonzero"/>
	<path id="Vector" d="M31.3 15.05C30.71 14.75 29.98 15 29.66 15.62L28.15 18.62L24.41 13.01C24.17 12.66 23.8 12.47 23.38 12.47L8.61 12.47C8.19 12.47 7.82 12.66 7.58 13.01L3.84 18.62L2.33 15.62C2.01 15 1.28 14.75 0.69 15.05C0.07 15.37 -0.18 16.11 0.12 16.7L2.31 21.08L29.68 21.08L31.87 16.7C32.17 16.11 31.92 15.37 31.3 15.05ZM16 27.23C13.96 27.23 12.3 28.89 12.3 30.93C12.3 32.96 13.96 34.62 16 34.62C18.03 34.62 19.69 32.96 19.69 30.93C19.69 28.89 18.03 27.23 16 27.23Z" fill="url(#paint_linear_1_157_0)" fill-opacity="1.000000" fill-rule="nonzero"/>
</svg>
