<svg width="18.777344" height="22.000244" viewBox="0 0 18.7773 22.0002" fill="none" xmlns="http://www.w3.org/2000/svg" xmlns:xlink="http://www.w3.org/1999/xlink">
	<desc>
			Created with Pixso.
	</desc>
	<defs/>
	<path id="Vector" d="M16.67 5.05C16.53 4.98 16.37 4.97 16.23 5.04C16.09 5.11 15.99 5.25 15.98 5.4C15.96 5.55 15.94 5.7 15.9 5.86C15.01 9.93 13.2 11.91 10.39 11.91L6.27 11.91C6.05 11.91 5.86 12.07 5.82 12.28L4.44 18.72L4.2 20.36C4.06 21.11 4.55 21.83 5.29 21.97C5.38 21.99 5.46 21.99 5.54 22L8.3 22C8.93 22 9.49 21.57 9.64 20.95L10.75 16.5L13.14 16.5C15.97 16.5 17.92 14.25 18.64 10.16C19.11 8.21 18.32 6.18 16.67 5.05Z" fill="#03A9F4" fill-opacity="1.000000" fill-rule="nonzero"/>
	<path id="Vector" d="M15.8 1.63C14.89 0.6 13.59 0.01 12.23 0L4.64 0C3.5 -0.01 2.53 0.82 2.37 1.94L0.01 17.67C-0.1 18.42 0.41 19.12 1.17 19.23C1.23 19.24 1.3 19.24 1.37 19.24L4.89 19.24C5.11 19.24 5.3 19.09 5.34 18.88L6.64 12.83L10.4 12.83C13.66 12.83 15.81 10.55 16.8 6.05C16.84 5.87 16.87 5.68 16.89 5.5C17.12 4.11 16.72 2.69 15.8 1.63Z" fill="#283593" fill-opacity="1.000000" fill-rule="nonzero"/>
</svg>
