<svg width="8.403320" height="13.993652" viewBox="0 0 8.40332 13.9937" fill="none" xmlns="http://www.w3.org/2000/svg" xmlns:xlink="http://www.w3.org/1999/xlink">
	<desc>
			Created with Pixso.
	</desc>
	<defs/>
	<path id="Vector" d="M0.2 6.66L6.23 0.24C6.37 0.09 6.56 0 6.77 0C6.97 -0.01 7.17 0.06 7.32 0.2L7.79 0.65C8.1 0.94 8.11 1.42 7.82 1.73L2.76 7.12L8.16 12.19C8.31 12.33 8.39 12.52 8.4 12.73C8.4 12.93 8.33 13.13 8.19 13.27L7.75 13.75C7.61 13.9 7.42 13.98 7.21 13.99C7.01 13.99 6.81 13.92 6.66 13.78L0.24 7.75C0.09 7.61 0 7.41 0 7.21C-0.01 7 0.06 6.81 0.2 6.66Z" fill="#D64374" fill-opacity="1.000000" fill-rule="nonzero"/>
</svg>
