<svg width="10.968262" height="10.000122" viewBox="0 0 10.9683 10.0001" fill="none" xmlns="http://www.w3.org/2000/svg" xmlns:xlink="http://www.w3.org/1999/xlink">
	<desc>
			Created with Pixso.
	</desc>
	<defs/>
	<path id="Vector" d="M7.17 0L9.7 0C10.05 0 10.35 0.13 10.59 0.39C10.84 0.66 10.96 0.98 10.96 1.36L10.96 4.09C10.96 4.46 10.84 4.79 10.59 5.05C10.35 5.32 10.05 5.45 9.7 5.45L8.22 5.45C8.05 5.45 7.9 5.52 7.77 5.65C7.65 5.78 7.59 5.94 7.59 6.13L7.59 6.36C7.59 6.86 7.75 7.29 8.08 7.64C8.41 8 8.81 8.18 9.28 8.18L9.7 8.18C9.81 8.18 9.91 8.22 9.99 8.31C10.08 8.4 10.12 8.51 10.12 8.63L10.12 9.54C10.12 9.66 10.08 9.77 9.99 9.86C9.91 9.95 9.81 10 9.7 10L9.28 10C8.82 10 8.38 9.9 7.97 9.71C7.55 9.52 7.19 9.26 6.89 8.93C6.59 8.6 6.35 8.22 6.17 7.77C5.99 7.32 5.9 6.85 5.9 6.36L5.9 1.36C5.9 0.98 6.02 0.66 6.27 0.39C6.52 0.13 6.82 0 7.17 0Z" fill="#F6762C" fill-opacity="1.000000" fill-rule="nonzero"/>
	<path id="Vector" d="M0.36 0.39C0.61 0.13 0.91 0 1.26 0L3.79 0C4.14 0 4.44 0.13 4.69 0.39C4.93 0.66 5.06 0.98 5.06 1.36L5.06 4.09C5.06 4.46 4.93 4.79 4.69 5.05C4.44 5.32 4.14 5.45 3.79 5.45L2.32 5.45C2.14 5.45 1.99 5.52 1.87 5.65C1.74 5.78 1.68 5.94 1.68 6.13L1.68 6.36C1.68 6.86 1.85 7.29 2.18 7.64C2.51 8 2.9 8.18 3.37 8.18L3.79 8.18C3.91 8.18 4 8.22 4.09 8.31C4.17 8.4 4.21 8.51 4.21 8.63L4.21 9.54C4.21 9.66 4.17 9.77 4.09 9.86C4 9.95 3.91 10 3.79 10L3.37 10C2.91 10 2.48 9.9 2.06 9.71C1.65 9.52 1.29 9.26 0.98 8.93C0.68 8.6 0.44 8.22 0.26 7.77C0.08 7.32 0 6.85 0 6.36L0 1.36C0 0.98 0.12 0.66 0.36 0.39Z" fill="#F6762C" fill-opacity="1.000000" fill-rule="nonzero"/>
</svg>
