<svg width="14.000000" height="16.500000" viewBox="0 0 11 16.5" fill="none"
    xmlns="http://www.w3.org/2000/svg" xmlns:xlink="http://www.w3.org/1999/xlink">
    <desc>
        Created with Pixso.
    </desc>
    <defs />
    <path id="Vector"
        d="M6.38 4.12C7.25 3.76 7.72 2.92 7.51 2.09C7.3 1.27 6.46 0.68 5.5 0.68C4.53 0.68 3.7 1.27 3.48 2.09C3.27 2.92 3.74 3.76 4.61 4.12L6.38 4.12Z"
        fill="#F98AAB" fill-opacity="1.000000" fill-rule="nonzero" />
    <path id="Vector"
        d="M3.16 4.81C3.08 4.81 3.01 4.77 2.96 4.72C1.81 3.44 1.75 1.46 2.81 0.11C2.88 0.02 2.97 -0.02 3.07 0C3.17 0.02 3.25 0.09 3.29 0.19C3.32 0.29 3.3 0.4 3.24 0.48C2.35 1.6 2.41 3.25 3.36 4.32C3.43 4.4 3.45 4.53 3.41 4.63C3.37 4.74 3.27 4.81 3.16 4.81Z"
        fill="#F98AAB" fill-opacity="1.000000" fill-rule="nonzero" />
    <path id="Vector"
        d="M8.26 3.43C8.16 3.43 8.06 3.39 8 3.32C7.95 3.24 7.94 3.15 7.99 3.08C8.54 2.21 8.4 1.15 7.63 0.4C7.56 0.33 7.54 0.24 7.58 0.16C7.61 0.07 7.7 0.01 7.81 0C7.92 -0.02 8.03 0.02 8.1 0.09C9.02 0.99 9.19 2.26 8.53 3.3C8.48 3.38 8.38 3.43 8.26 3.43Z"
        fill="#F98AAB" fill-opacity="1.000000" fill-rule="nonzero" />
    <path id="Vector"
        d="M11 7.86L11 12.29C11 12.29 11 13.8 10.08 14.68C9.97 14.78 9.91 14.93 9.92 15.07L9.92 15.93C9.92 16.24 9.68 16.49 9.38 16.5L5.07 16.5C4.77 16.49 4.53 16.24 4.53 15.93L4.53 15.83C4.53 15.38 4.36 14.95 4.05 14.64C3.53 14.11 2.72 13.2 2.37 12.29C1.83 10.89 0.76 8.93 0.22 8.37C-0.32 7.81 0.22 7.25 0.76 7.25C1.3 7.25 2.37 8.37 2.91 9.21C3.08 9.48 3.28 9.73 3.51 9.95C3.64 10.08 3.83 10.13 4.01 10.09C4.19 10.04 4.33 9.9 4.39 9.72C4.49 9.37 4.54 9.01 4.53 8.65L4.53 2.21C4.53 1.85 4.74 1.54 5.07 1.42C5.15 1.39 5.25 1.37 5.34 1.37C5.78 1.37 6.15 1.75 6.15 2.21L6.15 5.57C6.14 5.22 6.36 4.9 6.68 4.78C6.77 4.75 6.86 4.73 6.95 4.73C7.4 4.73 7.76 5.11 7.76 5.57L7.76 6.41C7.76 6.19 7.85 5.98 8 5.82C8.08 5.73 8.19 5.66 8.3 5.62C8.39 5.59 8.48 5.57 8.57 5.57C9.02 5.57 9.38 5.95 9.38 6.41L9.38 7.81C9.38 7.59 9.46 7.38 9.62 7.22C9.7 7.13 9.8 7.06 9.92 7.02C10.02 6.98 10.13 6.97 10.25 6.97C10.68 7.02 11 7.41 11 7.86Z"
        fill="#F98AAB" fill-opacity="1.000000" fill-rule="nonzero" />
    <path id="Vector"
        d="M5.51 1.39C5.42 1.39 5.32 1.4 5.23 1.44C4.9 1.55 4.68 1.87 4.68 2.22L4.68 8.6C4.69 8.96 4.64 9.32 4.53 9.66C4.49 9.79 4.4 9.9 4.28 9.97C4.42 10.05 4.6 10.07 4.76 10.01C4.91 9.95 5.03 9.82 5.09 9.66C5.19 9.32 5.24 8.96 5.23 8.6L5.23 2.22C5.23 1.87 5.45 1.55 5.79 1.44C5.7 1.4 5.6 1.39 5.51 1.39Z"
        fill="#F8EDF0" fill-opacity="1.000000" fill-rule="nonzero" />
    <path id="Vector"
        d="M6.9 4.77C6.56 4.88 6.34 5.2 6.34 5.55L6.34 8.05C6.34 8.2 6.47 8.33 6.62 8.33C6.77 8.33 6.9 8.2 6.9 8.05L6.9 5.55C6.9 5.2 7.12 4.88 7.45 4.77C7.27 4.7 7.08 4.7 6.9 4.77Z"
        fill="#F8EDF0" fill-opacity="1.000000" fill-rule="nonzero" />
    <path id="Vector"
        d="M8.57 5.6C8.45 5.64 8.34 5.71 8.26 5.79C8.1 5.95 8.01 6.16 8.01 6.38L8.01 8.05C8.01 8.2 8.14 8.33 8.29 8.33C8.44 8.33 8.57 8.2 8.57 8.05L8.57 6.38C8.56 6.03 8.79 5.72 9.12 5.6C8.94 5.53 8.75 5.53 8.57 5.6Z"
        fill="#F8EDF0" fill-opacity="1.000000" fill-rule="nonzero" />
    <path id="Vector"
        d="M10.51 6.94C10.41 6.94 10.32 6.95 10.23 6.99C10.11 7.03 10.01 7.09 9.92 7.18C9.76 7.34 9.68 7.55 9.68 7.77L9.68 8.33C9.68 8.48 9.8 8.6 9.95 8.6C10.11 8.6 10.23 8.48 10.23 8.33L10.23 7.77C10.23 7.42 10.45 7.1 10.79 6.99C10.7 6.95 10.6 6.94 10.51 6.94Z"
        fill="#F8EDF0" fill-opacity="1.000000" fill-rule="nonzero" />
    <path id="Vector"
        d="M9.96 9.62C9.77 9.62 9.62 9.74 9.62 9.88L9.62 11.42C9.62 11.57 9.77 11.68 9.96 11.68C10.15 11.68 10.31 11.57 10.31 11.42L10.31 9.88C10.31 9.74 10.15 9.62 9.96 9.62Z"
        fill="#F8EDF0" fill-opacity="1.000000" fill-rule="nonzero" />
    <path id="Vector"
        d="M10.08 12.37C9.96 12.37 9.86 12.52 9.85 12.7C9.83 12.88 9.78 13.04 9.69 13.15C9.63 13.24 9.61 13.37 9.63 13.49C9.65 13.61 9.71 13.7 9.79 13.73C9.87 13.77 9.95 13.73 10.01 13.64C10.19 13.4 10.29 13.06 10.31 12.71C10.31 12.52 10.21 12.37 10.08 12.37Z"
        fill="#F8EDF0" fill-opacity="1.000000" fill-rule="nonzero" />
    <path id="Vector"
        d="M5.95 15.12L5.72 15.12C5.6 15.12 5.5 15.27 5.5 15.46C5.5 15.65 5.6 15.81 5.72 15.81L5.95 15.81C6.08 15.81 6.18 15.65 6.18 15.46C6.18 15.27 6.08 15.12 5.95 15.12Z"
        fill="#F8EDF0" fill-opacity="1.000000" fill-rule="nonzero" />
    <path id="Vector"
        d="M8.7 15.12L7.1 15.12C6.97 15.12 6.87 15.27 6.87 15.46C6.87 15.65 6.97 15.81 7.1 15.81L8.7 15.81C8.83 15.81 8.93 15.65 8.93 15.46C8.93 15.27 8.83 15.12 8.7 15.12Z"
        fill="#F8EDF0" fill-opacity="1.000000" fill-rule="nonzero" />
</svg>