<svg width="51.001953" height="43.349792" viewBox="0 0 51.002 43.3498" fill="none" xmlns="http://www.w3.org/2000/svg" xmlns:xlink="http://www.w3.org/1999/xlink">
	<desc>
			Created with Pixso.
	</desc>
	<defs/>
	<path id="Vector" d="M37.39 36.54L37.39 14.45L3.39 14.45L3.39 36.54C3.39 37.48 4.16 38.24 5.09 38.24L35.69 38.24C36.63 38.24 37.39 37.48 37.39 36.54Z" fill="#289BC3" fill-opacity="1.000000" fill-rule="nonzero"/>
	<path id="Vector" d="M13.6 33.14L10.2 33.14C7.38 33.14 5.1 35.43 5.1 38.24C5.1 41.06 7.38 43.34 10.2 43.34L13.6 43.34C16.41 43.34 18.7 41.06 18.7 38.24C18.7 35.43 16.41 33.14 13.6 33.14Z" fill="#32283C" fill-opacity="1.000000" fill-rule="nonzero"/>
	<path id="Vector" d="M44.19 33.14L40.79 33.14C37.98 33.14 35.69 35.43 35.69 38.24C35.69 41.06 37.98 43.34 40.79 43.34L44.19 43.34C47.01 43.34 49.29 41.06 49.29 38.24C49.29 35.43 47.01 33.14 44.19 33.14Z" fill="#32283C" fill-opacity="1.000000" fill-rule="nonzero"/>
	<path id="Vector" d="M45.89 38.24C45.89 41.06 43.61 43.34 40.79 43.34C37.98 43.34 35.69 41.06 35.69 38.24C35.69 35.43 37.98 33.14 40.79 33.14C43.61 33.14 45.89 35.43 45.89 38.24Z" fill="#555A6E" fill-opacity="1.000000" fill-rule="evenodd"/>
	<path id="Vector" d="M42.49 38.24C42.49 39.18 41.73 39.94 40.79 39.94C39.85 39.94 39.09 39.18 39.09 38.24C39.09 37.31 39.85 36.54 40.79 36.54C41.73 36.54 42.49 37.31 42.49 38.24Z" fill="#E6E6EB" fill-opacity="1.000000" fill-rule="evenodd"/>
	<path id="Vector" d="M30.6 33.14L27.2 33.14C24.38 33.14 22.1 35.43 22.1 38.24C22.1 41.06 24.38 43.34 27.2 43.34L30.6 43.34C33.41 43.34 35.7 41.06 35.7 38.24C35.7 35.43 33.41 33.14 30.6 33.14Z" fill="#32283C" fill-opacity="1.000000" fill-rule="nonzero"/>
	<path id="Vector" d="M47.6 16.15L22.1 16.15C21.16 16.15 20.4 16.91 20.4 17.85L20.4 19.54L47.6 19.54C48.54 19.54 49.3 18.78 49.3 17.85C49.3 16.91 48.54 16.15 47.6 16.15Z" fill="#A5C3DC" fill-opacity="1.000000" fill-rule="nonzero"/>
	<path id="Vector" d="M30.6 16.15L22.1 16.15C21.16 16.15 20.4 16.91 20.4 17.85L20.4 19.54L30.6 19.54C31.54 19.54 32.3 18.78 32.3 17.85C32.3 16.91 31.54 16.15 30.6 16.15Z" fill="#D7E6F0" fill-opacity="1.000000" fill-rule="nonzero"/>
	<path id="Vector" d="M20.4 19.54L47.6 19.54L47.6 28.04L20.4 28.04L20.4 19.54Z" fill="#463C4B" fill-opacity="1.000000" fill-rule="nonzero"/>
	<path id="Vector" d="M20.4 19.54L30.6 19.54L30.6 28.04L20.4 28.04L20.4 19.54Z" fill="#555A6E" fill-opacity="1.000000" fill-rule="nonzero"/>
	<path id="Vector" d="M49.3 38.24L22.1 38.24C21.16 38.24 20.4 37.48 20.4 36.54L20.4 28.04L47.6 28.04C49.48 28.04 51 29.57 51 31.44L51 36.54C51 37.48 50.24 38.24 49.3 38.24Z" fill="#A5C3DC" fill-opacity="1.000000" fill-rule="nonzero"/>
	<path id="Vector" d="M32.3 38.24L22.1 38.24C21.16 38.24 20.4 37.48 20.4 36.54L20.4 28.04L30.6 28.04C32.48 28.04 34 29.57 34 31.44L34 36.54C34 37.48 33.24 38.24 32.3 38.24Z" fill="#D7E6F0" fill-opacity="1.000000" fill-rule="nonzero"/>
	<path id="Vector" d="M38.1 31.44L46.89 31.44C48.22 31.44 49.29 32.52 49.29 33.85C49.29 35.18 48.22 36.26 46.89 36.26L38.1 36.26C36.77 36.26 35.69 35.18 35.69 33.85C35.69 32.52 36.77 31.44 38.1 31.44Z" fill="#555A6E" fill-opacity="1.000000" fill-rule="nonzero"/>
	<path id="Vector" d="M39.38 33.85C39.38 34.56 38.81 35.13 38.11 35.13C37.4 35.13 36.83 34.56 36.83 33.85C36.83 33.15 37.4 32.58 38.11 32.58C38.81 32.58 39.38 33.15 39.38 33.85Z" fill="#00D2D2" fill-opacity="1.000000" fill-rule="evenodd"/>
	<path id="Vector" d="M48.16 33.85C48.16 34.56 47.59 35.13 46.88 35.13C46.18 35.13 45.61 34.56 45.61 33.85C45.61 33.15 46.18 32.58 46.88 32.58C47.59 32.58 48.16 33.15 48.16 33.85Z" fill="#00D2D2" fill-opacity="1.000000" fill-rule="evenodd"/>
	<path id="Vector" d="M16.14 0L11.04 0C10.57 0 10.19 0.38 10.19 0.84C10.19 1.31 10.57 1.7 11.04 1.7C14.33 1.7 16.99 4.36 16.99 7.64C16.99 8.11 17.37 8.49 17.84 8.49L22.94 8.49C23.41 8.49 23.79 8.11 23.79 7.64C23.79 3.43 20.36 0 16.14 0Z" fill="#A5C3DC" fill-opacity="1.000000" fill-rule="nonzero"/>
	<path id="Vector" d="M29.74 0L24.64 0C20.43 0 16.99 3.43 16.99 7.64C16.99 8.11 17.37 8.49 17.84 8.49L22.94 8.49C23.41 8.49 23.79 8.11 23.79 7.64C23.79 4.36 26.46 1.7 29.74 1.7C30.21 1.7 30.59 1.31 30.59 0.84C30.59 0.38 30.21 0 29.74 0Z" fill="#A5C3DC" fill-opacity="1.000000" fill-rule="nonzero"/>
	<path id="Vector" d="M33.14 0L28.04 0C27.58 0 27.19 0.38 27.19 0.84C27.19 1.31 27.58 1.7 28.04 1.7C29.45 1.7 30.59 2.84 30.59 4.25C30.59 5.65 29.45 6.79 28.04 6.79C27.58 6.79 27.19 7.18 27.19 7.64C27.19 8.11 27.58 8.49 28.04 8.49L33.14 8.49C35.49 8.49 37.39 6.59 37.39 4.25C37.39 1.9 35.49 0 33.14 0Z" fill="#A5C3DC" fill-opacity="1.000000" fill-rule="nonzero"/>
	<path id="Vector" d="M12.74 6.79C11.34 6.79 10.19 5.65 10.19 4.25C10.19 2.84 11.34 1.7 12.74 1.7C13.21 1.7 13.59 1.31 13.59 0.84C13.59 0.38 13.21 0 12.74 0L7.64 0C5.3 0 3.39 1.9 3.39 4.25C3.39 6.59 5.3 8.49 7.64 8.49L12.74 8.49C13.21 8.49 13.59 8.11 13.59 7.64C13.59 7.18 13.21 6.79 12.74 6.79Z" fill="#A5C3DC" fill-opacity="1.000000" fill-rule="nonzero"/>
	<path id="Vector" d="M39.09 8.5L1.7 8.5C0.76 8.5 0 9.26 0 10.2L0 12.75C0 13.68 0.76 14.45 1.7 14.45L39.09 14.45C40.03 14.45 40.79 13.68 40.79 12.75L40.79 10.2C40.79 9.26 40.03 8.5 39.09 8.5Z" fill="#289BC3" fill-opacity="1.000000" fill-rule="nonzero"/>
	<path id="Vector" d="M18.69 38.24L5.09 38.24C4.16 38.24 3.39 37.48 3.39 36.54L3.39 19.54L20.39 19.54L20.39 36.54C20.39 37.48 19.63 38.24 18.69 38.24Z" fill="#00D2D2" fill-opacity="1.000000" fill-rule="nonzero"/>
	<path id="Vector" d="M20.39 8.5L1.7 8.5C0.76 8.5 0 9.26 0 10.2L0 12.75C0 13.68 0.76 14.45 1.7 14.45L20.39 14.45C21.33 14.45 22.1 13.68 22.1 12.75L22.1 10.2C22.1 9.26 21.33 8.5 20.39 8.5Z" fill="#00D2D2" fill-opacity="1.000000" fill-rule="nonzero"/>
	<path id="Vector" d="M11.89 12.74C11.89 13.68 12.65 14.44 13.59 14.44L8.49 14.44C7.55 14.44 6.79 13.68 6.79 12.74L6.79 10.2C6.79 9.26 7.55 8.49 8.49 8.49L13.59 8.49C12.65 8.49 11.89 9.26 11.89 10.2L11.89 12.74Z" fill="#D7E6F0" fill-opacity="1.000000" fill-rule="nonzero"/>
	<path id="Vector" d="M28.9 12.75C28.9 13.68 28.14 14.45 27.2 14.45L32.3 14.45C33.24 14.45 34 13.68 34 12.75L34 10.2C34 9.26 33.24 8.5 32.3 8.5L27.2 8.5C28.14 8.5 28.9 9.26 28.9 10.2L28.9 12.75Z" fill="#A5C3DC" fill-opacity="1.000000" fill-rule="nonzero"/>
	<path id="Vector" d="M28.05 8.49L17 8.49L17 7.64C17 3.43 20.43 0 24.65 0L28.05 0C30.39 0 32.3 1.9 32.3 4.25C32.3 6.59 30.39 8.49 28.05 8.49ZM18.76 6.79L28.05 6.79C29.45 6.79 30.6 5.65 30.6 4.25C30.6 2.84 29.45 1.7 28.05 1.7L24.65 1.7C21.66 1.7 19.17 3.92 18.76 6.79Z" fill="#D7E6F0" fill-opacity="1.000000" fill-rule="nonzero"/>
	<path id="Vector" d="M18.69 8.49L7.64 8.49C5.3 8.49 3.39 6.59 3.39 4.25C3.39 1.9 5.3 0 7.64 0L11.04 0C15.26 0 18.69 3.43 18.69 7.64L18.69 8.49ZM7.64 1.7C6.24 1.7 5.09 2.84 5.09 4.25C5.09 5.65 6.24 6.79 7.64 6.79L16.93 6.79C16.52 3.92 14.04 1.7 11.04 1.7L7.64 1.7Z" fill="#D7E6F0" fill-opacity="1.000000" fill-rule="nonzero"/>
	<path id="Vector" d="M32.3 38.24C32.3 41.06 30.01 43.34 27.2 43.34C24.38 43.34 22.1 41.06 22.1 38.24C22.1 35.43 24.38 33.14 27.2 33.14C30.01 33.14 32.3 35.43 32.3 38.24Z" fill="#555A6E" fill-opacity="1.000000" fill-rule="evenodd"/>
	<path id="Vector" d="M28.89 38.24C28.89 39.18 28.13 39.94 27.2 39.94C26.26 39.94 25.5 39.18 25.5 38.24C25.5 37.31 26.26 36.54 27.2 36.54C28.13 36.54 28.89 37.31 28.89 38.24Z" fill="#E6E6EB" fill-opacity="1.000000" fill-rule="evenodd"/>
	<path id="Vector" d="M15.3 38.24C15.3 41.06 13.01 43.34 10.2 43.34C7.38 43.34 5.1 41.06 5.1 38.24C5.1 35.43 7.38 33.14 10.2 33.14C13.01 33.14 15.3 35.43 15.3 38.24Z" fill="#555A6E" fill-opacity="1.000000" fill-rule="evenodd"/>
	<path id="Vector" d="M11.89 38.24C11.89 39.18 11.13 39.94 10.19 39.94C9.25 39.94 8.49 39.18 8.49 38.24C8.49 37.31 9.25 36.54 10.19 36.54C11.13 36.54 11.89 37.31 11.89 38.24Z" fill="#E6E6EB" fill-opacity="1.000000" fill-rule="evenodd"/>
</svg>
