<svg width="10.968262" height="10.000122" viewBox="0 0 10.9683 10.0001" fill="none" xmlns="http://www.w3.org/2000/svg" xmlns:xlink="http://www.w3.org/1999/xlink">
	<desc>
			Created with Pixso.
	</desc>
	<defs/>
	<path id="Vector" d="M3.79 0L1.26 0C0.91 0 0.61 0.13 0.36 0.39C0.12 0.66 0 0.98 0 1.36L0 4.09C0 4.46 0.12 4.79 0.36 5.05C0.61 5.32 0.91 5.45 1.26 5.45L2.74 5.45C2.91 5.45 3.06 5.52 3.18 5.65C3.31 5.78 3.37 5.94 3.37 6.13L3.37 6.36C3.37 6.86 3.2 7.29 2.88 7.64C2.55 8 2.15 8.18 1.68 8.18L1.26 8.18C1.15 8.18 1.05 8.22 0.96 8.31C0.88 8.4 0.84 8.51 0.84 8.63L0.84 9.54C0.84 9.66 0.88 9.77 0.96 9.86C1.05 9.95 1.15 10 1.26 10L1.68 10C2.14 10 2.58 9.9 2.99 9.71C3.41 9.52 3.77 9.26 4.07 8.93C4.37 8.6 4.61 8.22 4.79 7.77C4.97 7.32 5.06 6.85 5.06 6.36L5.06 1.36C5.06 0.98 4.93 0.66 4.69 0.39C4.44 0.13 4.14 0 3.79 0Z" fill="#F6762C" fill-opacity="1.000000" fill-rule="nonzero"/>
	<path id="Vector" d="M10.59 0.39C10.35 0.13 10.05 0 9.7 0L7.17 0C6.81 0 6.52 0.13 6.27 0.39C6.02 0.66 5.9 0.98 5.9 1.36L5.9 4.09C5.9 4.46 6.02 4.79 6.27 5.05C6.52 5.32 6.82 5.45 7.17 5.45L8.64 5.45C8.82 5.45 8.97 5.52 9.09 5.65C9.21 5.78 9.28 5.94 9.28 6.13L9.28 6.36C9.28 6.86 9.11 7.29 8.78 7.64C8.45 8 8.05 8.18 7.59 8.18L7.17 8.18C7.05 8.18 6.95 8.22 6.87 8.31C6.79 8.4 6.74 8.51 6.74 8.63L6.74 9.54C6.74 9.66 6.79 9.77 6.87 9.86C6.95 9.95 7.05 10 7.17 10L7.59 10C8.05 10 8.48 9.9 8.9 9.71C9.31 9.52 9.67 9.26 9.97 8.93C10.28 8.6 10.52 8.22 10.7 7.77C10.87 7.32 10.96 6.85 10.96 6.36L10.96 1.36C10.96 0.98 10.84 0.66 10.59 0.39Z" fill="#F6762C" fill-opacity="1.000000" fill-rule="nonzero"/>
</svg>
