<svg width="47.382812" height="14.828369" viewBox="0 0 47.3828 14.8284" fill="none" xmlns="http://www.w3.org/2000/svg" xmlns:xlink="http://www.w3.org/1999/xlink">
	<desc>
			Created with Pixso.
	</desc>
	<defs/>
	<path id="Vector" d="M19.36 0L16.98 14.79L20.79 14.79L23.16 0L19.36 0ZM30.83 6.02C29.5 5.37 28.68 4.92 28.68 4.25C28.7 3.64 29.37 3.02 30.87 3.02C32.11 2.99 33.02 3.28 33.71 3.57L34.05 3.72L34.57 0.62C33.82 0.33 32.63 0.01 31.16 0.01C27.4 0.01 24.76 1.97 24.74 4.76C24.71 6.82 26.64 7.96 28.07 8.65C29.55 9.35 30.05 9.81 30.05 10.43C30.03 11.39 28.86 11.83 27.76 11.83C26.25 11.83 25.43 11.6 24.2 11.07L23.69 10.84L23.16 14.06C24.06 14.46 25.7 14.81 27.4 14.82C31.39 14.82 33.99 12.9 34.02 9.93C34.03 8.29 33.02 7.04 30.83 6.02ZM44.31 0.04L41.37 0.04C40.47 0.04 39.78 0.3 39.38 1.23L33.74 14.79L37.73 14.79L38.83 11.86L43.29 11.86L43.86 14.81L47.38 14.81L44.31 0.04ZM39.93 8.89C40.01 8.9 41.46 4.1 41.46 4.1L42.62 8.89C42.62 8.89 40.68 8.89 39.93 8.89ZM13.81 0L10.08 10.05L9.68 8.07C8.99 5.78 6.83 3.29 4.42 2.06L7.83 14.78L11.85 14.78L17.83 0L13.81 0L13.81 0Z" fill="#2394BC" fill-opacity="1.000000" fill-rule="nonzero"/>
	<path id="Vector" d="M8.43 1.9C8.14 0.78 7.21 0.02 5.95 0L0.06 0L0 0.27C4.6 1.41 8.46 4.9 9.71 8.18L8.43 1.9Z" fill="#EFC75E" fill-opacity="1.000000" fill-rule="nonzero"/>
</svg>
