<svg width="44.000000" height="44.000000" viewBox="0 0 44 44" fill="none" xmlns="http://www.w3.org/2000/svg" xmlns:xlink="http://www.w3.org/1999/xlink">
	<desc>
			Created with Pixso.
	</desc>
	<defs>
		<clipPath id="clip1_163">
			<rect id="cash-back 1" rx="-0.500000" width="43.000000" height="43.000000" transform="translate(0.500000 0.500000)" fill="white" fill-opacity="0"/>
		</clipPath>
		<linearGradient x1="11.609612" y1="24.059505" x2="36.507423" y2="24.059505" id="paint_linear_1_164_0" gradientUnits="userSpaceOnUse">
			<stop stop-color="#61DB99"/>
			<stop offset="1.000000" stop-color="#009E74"/>
		</linearGradient>
		<linearGradient x1="25.183882" y1="27.865198" x2="23.877724" y2="23.117624" id="paint_linear_1_165_0" gradientUnits="userSpaceOnUse">
			<stop stop-color="#009E74" stop-opacity="0.000000"/>
			<stop offset="1.000000" stop-color="#009E74"/>
		</linearGradient>
		<linearGradient x1="10.206754" y1="22.659176" x2="35.104557" y2="22.659176" id="paint_linear_1_166_0" gradientUnits="userSpaceOnUse">
			<stop stop-color="#61DB99"/>
			<stop offset="1.000000" stop-color="#009E74"/>
		</linearGradient>
		<linearGradient x1="23.626169" y1="27.037785" x2="22.765169" y2="22.913948" id="paint_linear_1_167_0" gradientUnits="userSpaceOnUse">
			<stop stop-color="#009E74" stop-opacity="0.000000"/>
			<stop offset="1.000000" stop-color="#009E74"/>
		</linearGradient>
		<linearGradient x1="8.808864" y1="21.258751" x2="33.706673" y2="21.258751" id="paint_linear_1_168_0" gradientUnits="userSpaceOnUse">
			<stop stop-color="#61DB99"/>
			<stop offset="1.000000" stop-color="#009E74"/>
		</linearGradient>
		<linearGradient x1="23.131268" y1="28.397514" x2="19.127357" y2="12.543221" id="paint_linear_1_169_0" gradientUnits="userSpaceOnUse">
			<stop stop-color="#009E74" stop-opacity="0.000000"/>
			<stop offset="1.000000" stop-color="#009E74"/>
		</linearGradient>
		<linearGradient x1="7.492496" y1="19.941418" x2="32.390308" y2="19.941418" id="paint_linear_1_170_0" gradientUnits="userSpaceOnUse">
			<stop stop-color="#A7F3CE"/>
			<stop offset="1.000000" stop-color="#61DB99"/>
		</linearGradient>
		<linearGradient x1="13.436141" y1="13.437795" x2="29.279224" y2="29.280903" id="paint_linear_1_171_0" gradientUnits="userSpaceOnUse">
			<stop stop-color="#61DB99"/>
			<stop offset="1.000000" stop-color="#009E74"/>
		</linearGradient>
		<linearGradient x1="18.015656" y1="18.017214" x2="22.702833" y2="22.704390" id="paint_linear_1_172_0" gradientUnits="userSpaceOnUse">
			<stop stop-color="#A7F3CE"/>
			<stop offset="1.000000" stop-color="#61DB99"/>
		</linearGradient>
		<linearGradient x1="11.668827" y1="15.161753" x2="14.945453" y2="18.438383" id="paint_linear_1_173_0" gradientUnits="userSpaceOnUse">
			<stop stop-color="#A7F3CE"/>
			<stop offset="1.000000" stop-color="#61DB99"/>
		</linearGradient>
		<linearGradient x1="25.519629" y1="22.031191" x2="28.796257" y2="25.307806" id="paint_linear_1_174_0" gradientUnits="userSpaceOnUse">
			<stop stop-color="#A7F3CE"/>
			<stop offset="1.000000" stop-color="#61DB99"/>
		</linearGradient>
		<linearGradient x1="1.351540" y1="9.077187" x2="43.998951" y2="9.077187" id="paint_linear_1_175_0" gradientUnits="userSpaceOnUse">
			<stop stop-color="#FFB92D"/>
			<stop offset="1.000000" stop-color="#F59500"/>
		</linearGradient>
		<radialGradient gradientTransform="translate(22.2838 22.1382) rotate(180) scale(21.8589 21.8588)" cx="0.000000" cy="0.000000" r="1.000000" id="paint_radial_1_176_0" gradientUnits="userSpaceOnUse">
			<stop stop-color="#BE3F45"/>
			<stop offset="0.317000" stop-color="#C14046"/>
			<stop offset="0.538000" stop-color="#CA4148"/>
			<stop offset="0.729000" stop-color="#D9444B"/>
			<stop offset="0.902000" stop-color="#EF4950"/>
			<stop offset="1.000000" stop-color="#FF4C54"/>
		</radialGradient>
	</defs>
	<rect id="cash-back 1" rx="-0.500000" width="43.000000" height="43.000000" transform="translate(0.500000 0.500000)" fill="#FFFFFF" fill-opacity="0"/>
	<g clip-path="url(#clip1_163)">
		<path id="Vector" d="M35.57 30.37L12.54 30.37C12.02 30.37 11.6 29.95 11.6 29.43L11.6 18.68C11.6 18.16 12.02 17.74 12.54 17.74L35.57 17.74C36.09 17.74 36.5 18.16 36.5 18.68L36.5 29.43C36.5 29.95 36.09 30.37 35.57 30.37Z" fill="url(#paint_linear_1_164_0)" fill-opacity="1.000000" fill-rule="nonzero"/>
		<path id="Vector" d="M11.63 29.04L12.95 30.37L35.57 30.37C36.09 30.37 36.5 29.95 36.5 29.43L36.5 18.68C36.5 18.16 36.09 17.74 35.57 17.74L12.54 17.74C12.02 17.74 11.6 18.16 11.6 18.68L11.6 28.99L11.63 29.04Z" fill="url(#paint_linear_1_165_0)" fill-opacity="1.000000" fill-rule="nonzero"/>
		<path id="Vector" d="M34.17 28.97L11.14 28.97C10.62 28.97 10.2 28.55 10.2 28.03L10.2 17.27C10.2 16.76 10.62 16.34 11.14 16.34L34.17 16.34C34.68 16.34 35.1 16.76 35.1 17.27L35.1 28.03C35.1 28.55 34.68 28.97 34.17 28.97Z" fill="url(#paint_linear_1_166_0)" fill-opacity="1.000000" fill-rule="nonzero"/>
		<path id="Vector" d="M10.23 27.64L11.55 28.97L34.17 28.97C34.68 28.97 35.1 28.55 35.1 28.03L35.1 17.27C35.1 16.76 34.68 16.34 34.17 16.34L11.14 16.34C10.62 16.34 10.2 16.76 10.2 17.27L10.2 27.59L10.23 27.64Z" fill="url(#paint_linear_1_167_0)" fill-opacity="1.000000" fill-rule="nonzero"/>
		<path id="Vector" d="M32.77 27.57L9.74 27.57C9.22 27.57 8.8 27.15 8.8 26.63L8.8 15.87C8.8 15.36 9.22 14.94 9.74 14.94L32.77 14.94C33.28 14.94 33.7 15.36 33.7 15.87L33.7 26.63C33.7 27.15 33.28 27.57 32.77 27.57Z" fill="url(#paint_linear_1_168_0)" fill-opacity="1.000000" fill-rule="nonzero"/>
		<path id="Vector" d="M8.83 26.24L10.15 27.57L32.77 27.57C33.28 27.57 33.7 27.15 33.7 26.63L33.7 15.87C33.7 15.36 33.28 14.94 32.77 14.94L9.74 14.94C9.22 14.94 8.8 15.36 8.8 15.87L8.8 26.19L8.83 26.24Z" fill="url(#paint_linear_1_169_0)" fill-opacity="1.000000" fill-rule="nonzero"/>
		<path id="Vector" d="M31.45 26.25L8.42 26.25C7.91 26.25 7.49 25.83 7.49 25.31L7.49 14.56C7.49 14.04 7.91 13.62 8.42 13.62L31.45 13.62C31.97 13.62 32.39 14.04 32.39 14.56L32.39 25.31C32.39 25.83 31.97 26.25 31.45 26.25Z" fill="url(#paint_linear_1_170_0)" fill-opacity="1.000000" fill-rule="nonzero"/>
		<path id="Vector" d="M30.98 16.29C30.3 16.26 29.75 15.7 29.71 15.03C29.71 14.88 29.72 14.73 29.76 14.6L10.11 14.6C10.15 14.73 10.16 14.88 10.16 15.03C10.12 15.7 9.57 16.26 8.89 16.29C8.66 16.3 8.44 16.26 8.25 16.17L8.25 23.71C8.44 23.61 8.66 23.57 8.89 23.58C9.57 23.61 10.12 24.17 10.16 24.84C10.16 24.99 10.15 25.14 10.11 25.27L29.76 25.27C29.72 25.14 29.71 24.99 29.71 24.84C29.75 24.17 30.3 23.61 30.98 23.58C31.21 23.57 31.43 23.61 31.62 23.71L31.62 16.17C31.43 16.26 31.21 16.3 30.98 16.29Z" fill="url(#paint_linear_1_171_0)" fill-opacity="1.000000" fill-rule="nonzero"/>
		<path id="Vector" d="M23.17 19.94C23.17 21.72 21.72 23.17 19.93 23.17C18.15 23.17 16.7 21.72 16.7 19.94C16.7 18.15 18.15 16.7 19.93 16.7C21.72 16.7 23.17 18.15 23.17 19.94Z" fill="url(#paint_linear_1_172_0)" fill-opacity="1.000000" fill-rule="evenodd"/>
		<path id="Vector" d="M10.53 15.79L15.49 15.79L15.49 17.21L10.53 17.21L10.53 15.79Z" fill="url(#paint_linear_1_173_0)" fill-opacity="1.000000" fill-rule="evenodd"/>
		<path id="Vector" d="M24.38 22.66L29.34 22.66L29.34 24.09L24.38 24.09L24.38 22.66Z" fill="url(#paint_linear_1_174_0)" fill-opacity="1.000000" fill-rule="evenodd"/>
		<path id="Vector" d="M42.73 9.97C41.84 9.64 40.86 10.01 40.4 10.8C38.94 8.39 37.01 6.29 34.69 4.58C30.97 1.85 26.56 0.41 21.93 0.41C17.31 0.41 12.9 1.85 9.18 4.58C5.54 7.26 2.86 10.92 1.45 15.19C1.11 16.2 1.66 17.3 2.67 17.63C3.68 17.97 4.77 17.42 5.11 16.41C6.27 12.91 8.47 9.89 11.46 7.7C14.52 5.46 18.14 4.27 21.93 4.27C25.73 4.27 29.35 5.46 32.41 7.7C34.19 9 35.69 10.6 36.86 12.42C35.97 12.29 35.08 12.79 34.76 13.67C34.39 14.67 34.91 15.78 35.91 16.14L39.93 17.61C39.94 17.62 39.95 17.62 39.96 17.62C39.99 17.64 40.03 17.65 40.06 17.66C40.08 17.66 40.1 17.67 40.12 17.67C40.15 17.68 40.18 17.69 40.22 17.69C40.24 17.7 40.26 17.7 40.27 17.7C40.31 17.71 40.35 17.72 40.39 17.72C40.4 17.72 40.42 17.72 40.43 17.73C40.49 17.73 40.54 17.73 40.59 17.73C40.59 17.73 40.59 17.73 40.59 17.73L40.59 17.73C40.64 17.73 40.69 17.73 40.74 17.73C40.75 17.73 40.77 17.72 40.78 17.72C40.82 17.72 40.85 17.71 40.89 17.71C40.91 17.71 40.92 17.7 40.93 17.7C40.97 17.69 41.01 17.69 41.04 17.68C41.06 17.68 41.07 17.67 41.09 17.67C41.12 17.66 41.15 17.65 41.19 17.64C41.19 17.64 41.2 17.64 41.2 17.63C41.21 17.63 41.22 17.63 41.23 17.62C41.27 17.61 41.31 17.59 41.35 17.57C41.37 17.57 41.39 17.56 41.41 17.55C41.45 17.53 41.49 17.51 41.53 17.49C41.54 17.48 41.55 17.48 41.56 17.47C41.61 17.44 41.66 17.41 41.7 17.38C41.72 17.37 41.73 17.36 41.75 17.34C41.78 17.32 41.81 17.3 41.84 17.27C41.85 17.26 41.87 17.25 41.89 17.23C41.92 17.2 41.95 17.17 41.98 17.14C41.99 17.13 42 17.13 42.01 17.12C42.05 17.07 42.08 17.03 42.12 16.98C42.12 16.98 42.12 16.98 42.13 16.97C42.16 16.93 42.19 16.89 42.22 16.84C42.23 16.83 42.23 16.82 42.24 16.8C42.26 16.77 42.28 16.73 42.3 16.69C42.31 16.68 42.32 16.66 42.33 16.64C42.35 16.61 42.36 16.57 42.38 16.53C42.38 16.52 42.39 16.5 42.4 16.48C42.4 16.48 42.4 16.47 42.41 16.46L43.88 12.44C44.24 11.44 43.73 10.33 42.73 9.97Z" fill="url(#paint_linear_1_175_0)" fill-opacity="1.000000" fill-rule="nonzero"/>
		<path id="Vector" d="M1.26 34.02C2.15 34.35 3.13 33.98 3.59 33.19C5.05 35.6 6.98 37.7 9.3 39.41C13.02 42.14 17.43 43.58 22.05 43.58C26.68 43.58 31.09 42.14 34.81 39.41C38.45 36.73 41.13 33.07 42.54 28.8C42.88 27.78 42.33 26.69 41.32 26.36C40.31 26.02 39.22 26.57 38.88 27.58C37.72 31.08 35.52 34.1 32.53 36.29C29.47 38.53 25.85 39.72 22.06 39.72C18.26 39.72 14.64 38.53 11.58 36.29C9.8 34.99 8.3 33.39 7.13 31.57C8.02 31.7 8.91 31.2 9.23 30.32C9.6 29.32 9.08 28.21 8.08 27.85L4.06 26.38C4.05 26.37 4.04 26.37 4.03 26.37C4 26.35 3.96 26.34 3.93 26.33C3.91 26.33 3.89 26.32 3.87 26.32C3.84 26.31 3.81 26.3 3.77 26.3C3.75 26.29 3.73 26.29 3.72 26.28C3.68 26.28 3.64 26.27 3.6 26.27C3.59 26.27 3.57 26.27 3.56 26.26C3.5 26.26 3.45 26.26 3.4 26.26C3.4 26.26 3.4 26.26 3.4 26.26L3.4 26.26C3.35 26.26 3.3 26.26 3.25 26.26C3.24 26.26 3.22 26.27 3.21 26.27C3.17 26.27 3.14 26.28 3.1 26.28C3.08 26.28 3.07 26.29 3.06 26.29C3.02 26.3 2.98 26.3 2.95 26.31C2.93 26.31 2.92 26.32 2.9 26.32C2.87 26.33 2.84 26.34 2.8 26.35C2.8 26.35 2.79 26.35 2.79 26.36C2.78 26.36 2.77 26.36 2.76 26.37C2.72 26.38 2.68 26.4 2.64 26.42C2.62 26.42 2.6 26.43 2.58 26.44C2.54 26.46 2.5 26.48 2.46 26.5C2.45 26.51 2.44 26.51 2.43 26.52C2.38 26.55 2.33 26.58 2.29 26.61C2.27 26.62 2.26 26.63 2.24 26.65C2.21 26.67 2.18 26.69 2.15 26.72C2.14 26.73 2.12 26.74 2.1 26.76C2.07 26.79 2.04 26.82 2.01 26.85C2 26.86 1.99 26.86 1.98 26.87C1.94 26.92 1.91 26.96 1.87 27.01C1.87 27.01 1.87 27.01 1.86 27.02C1.83 27.06 1.8 27.1 1.77 27.15C1.76 27.16 1.76 27.17 1.75 27.19C1.73 27.22 1.71 27.26 1.69 27.3C1.68 27.31 1.67 27.33 1.66 27.35C1.64 27.38 1.63 27.42 1.61 27.46C1.61 27.47 1.6 27.49 1.59 27.51C1.59 27.51 1.59 27.52 1.58 27.53L0.11 31.55C-0.25 32.55 0.26 33.66 1.26 34.02Z" fill="url(#paint_radial_1_176_0)" fill-opacity="1.000000" fill-rule="nonzero"/>
	</g>
</svg>
