<svg width="54.000000" height="54.000000" viewBox="0 0 54 54" fill="none" xmlns="http://www.w3.org/2000/svg" xmlns:xlink="http://www.w3.org/1999/xlink">
	<desc>
			Created with Pixso.
	</desc>
	<defs>
		<clipPath id="clip1_182">
			<rect id="fast-delivery 1" rx="-0.500000" width="53.000000" height="53.000000" transform="translate(0.500000 0.500000)" fill="white" fill-opacity="0"/>
		</clipPath>
	</defs>
	<rect id="fast-delivery 1" rx="-0.500000" width="53.000000" height="53.000000" transform="translate(0.500000 0.500000)" fill="#FFFFFF" fill-opacity="0"/>
	<g clip-path="url(#clip1_182)">
		<path id="Vector" d="M43.68 30.37L35.43 30.37C35.21 30.37 34.99 30.28 34.84 30.12C34.68 29.96 34.59 29.75 34.59 29.53C34.59 29.3 34.68 29.09 34.84 28.93C34.99 28.77 35.21 28.68 35.43 28.68L43.68 28.68C43.91 28.68 44.12 28.77 44.28 28.93C44.44 29.09 44.53 29.3 44.53 29.53C44.53 29.75 44.44 29.96 44.28 30.12C44.12 30.28 43.91 30.37 43.68 30.37Z" fill="#E0E2E5" fill-opacity="1.000000" fill-rule="nonzero"/>
		<path id="Vector" d="M25.31 19.4L27 39.65L27 41.34L37.12 41.34L37.12 39.65L38.81 19.4L25.31 19.4Z" fill="#93573D" fill-opacity="1.000000" fill-rule="nonzero"/>
		<path id="Vector" d="M16.87 19.4L16.87 18.56L13.5 18.56L13.5 21.09L10.12 21.09L10.12 29.53L13.5 29.53L16.87 29.53L16.87 28.68L20.25 28.68L20.25 19.4L16.87 19.4Z" fill="#FDD14B" fill-opacity="1.000000" fill-rule="nonzero"/>
		<path id="Vector" d="M13.5 32.06C13.27 32.06 13.06 31.97 12.9 31.81C12.74 31.65 12.65 31.44 12.65 31.21L12.65 21.93C12.65 21.71 12.74 21.49 12.9 21.34C13.06 21.18 13.27 21.09 13.5 21.09C13.72 21.09 13.93 21.18 14.09 21.34C14.25 21.49 14.34 21.71 14.34 21.93L14.34 31.21C14.34 31.44 14.25 31.65 14.09 31.81C13.93 31.97 13.72 32.06 13.5 32.06Z" fill="#E4BC43" fill-opacity="1.000000" fill-rule="nonzero"/>
		<path id="Vector" d="M16.99 33.75C16.77 33.75 16.56 33.66 16.4 33.5C16.24 33.34 16.15 33.13 16.15 32.91L16.03 20.25C16.02 20.03 16.11 19.81 16.27 19.65C16.42 19.49 16.64 19.4 16.86 19.4C17.09 19.4 17.3 19.49 17.46 19.64C17.62 19.8 17.71 20.01 17.71 20.24L17.83 32.89C17.84 33.12 17.75 33.33 17.59 33.49C17.44 33.65 17.22 33.74 17 33.75L16.99 33.75Z" fill="#E4BC43" fill-opacity="1.000000" fill-rule="nonzero"/>
		<path id="Vector" d="M9.28 27.84L10.96 39.65L10.96 41.34L21.09 41.34L21.09 39.65L21.09 27.84L9.28 27.84Z" fill="#E74444" fill-opacity="1.000000" fill-rule="nonzero"/>
		<path id="Vector" d="M48.93 30.37L47.25 30.37C47.02 30.37 46.81 30.28 46.65 30.12C46.49 29.96 46.4 29.75 46.4 29.53C46.4 29.3 46.49 29.09 46.65 28.93C46.81 28.77 47.02 28.68 47.25 28.68L48.93 28.68C49.16 28.68 49.37 28.77 49.53 28.93C49.69 29.09 49.78 29.3 49.78 29.53C49.78 29.75 49.69 29.96 49.53 30.12C49.37 30.28 49.16 30.37 48.93 30.37Z" fill="#E0E2E5" fill-opacity="1.000000" fill-rule="nonzero"/>
		<path id="Vector" d="M38.81 19.4L38.53 22.78L25.59 22.78L25.31 19.4L38.81 19.4Z" fill="#A4D4F4" fill-opacity="1.000000" fill-rule="nonzero"/>
		<path id="Vector" d="M23.67 14.34C23.52 14.34 23.37 14.3 23.23 14.22C23.1 14.14 23 14.03 22.92 13.89C22.85 13.76 22.82 13.61 22.83 13.45C22.83 13.3 22.88 13.15 22.97 13.03L23.77 11.82C23.89 11.64 23.93 11.43 23.9 11.21C23.86 11 23.75 10.81 23.57 10.68L22.75 10.07C22.23 9.68 21.89 9.1 21.78 8.47C21.67 7.83 21.81 7.17 22.16 6.64L22.97 5.43C23.03 5.34 23.11 5.26 23.2 5.2C23.29 5.14 23.39 5.1 23.5 5.07C23.61 5.05 23.72 5.05 23.83 5.07C23.94 5.09 24.04 5.14 24.14 5.2C24.23 5.26 24.31 5.34 24.37 5.43C24.43 5.52 24.47 5.63 24.5 5.74C24.52 5.84 24.52 5.96 24.5 6.07C24.48 6.17 24.43 6.28 24.37 6.37L23.57 7.57C23.45 7.75 23.4 7.97 23.44 8.18C23.48 8.4 23.59 8.59 23.77 8.72L24.59 9.33C25.1 9.72 25.45 10.29 25.56 10.93C25.67 11.57 25.53 12.22 25.17 12.76L24.37 13.96C24.29 14.08 24.19 14.17 24.07 14.24C23.94 14.3 23.81 14.34 23.67 14.34Z" fill="#E0E2E5" fill-opacity="1.000000" fill-rule="nonzero"/>
		<path id="Vector" d="M16.92 14.34C16.77 14.34 16.62 14.3 16.48 14.22C16.35 14.14 16.25 14.03 16.17 13.89C16.1 13.76 16.07 13.61 16.08 13.45C16.08 13.3 16.13 13.15 16.22 13.03L17.02 11.82C17.14 11.64 17.18 11.43 17.15 11.21C17.11 11 17 10.81 16.82 10.68L16 10.07C15.48 9.68 15.14 9.11 15.03 8.47C14.92 7.83 15.06 7.17 15.41 6.64L16.22 5.43C16.34 5.25 16.53 5.12 16.75 5.07C16.97 5.03 17.2 5.08 17.39 5.2C17.57 5.32 17.7 5.52 17.75 5.74C17.79 5.96 17.75 6.18 17.62 6.37L16.82 7.57C16.7 7.75 16.65 7.97 16.69 8.18C16.73 8.4 16.84 8.59 17.02 8.72L17.84 9.33C18.35 9.72 18.7 10.29 18.81 10.93C18.92 11.57 18.78 12.22 18.42 12.76L17.62 13.96C17.54 14.08 17.44 14.17 17.32 14.24C17.19 14.3 17.06 14.34 16.92 14.34Z" fill="#E0E2E5" fill-opacity="1.000000" fill-rule="nonzero"/>
		<path id="Vector" d="M30.32 14.34C30.17 14.34 30.02 14.3 29.89 14.22C29.76 14.14 29.65 14.03 29.58 13.89C29.51 13.76 29.48 13.61 29.48 13.45C29.49 13.3 29.54 13.15 29.62 13.03L30.43 11.82C30.54 11.64 30.59 11.43 30.55 11.21C30.52 11 30.4 10.81 30.23 10.68L29.41 10.07C28.89 9.68 28.54 9.11 28.43 8.47C28.32 7.83 28.46 7.17 28.82 6.64L29.62 5.43C29.75 5.25 29.94 5.12 30.16 5.07C30.27 5.05 30.38 5.05 30.49 5.07C30.6 5.09 30.7 5.14 30.79 5.2C30.89 5.26 30.96 5.34 31.03 5.43C31.09 5.52 31.13 5.63 31.15 5.74C31.17 5.84 31.17 5.96 31.15 6.06C31.13 6.17 31.09 6.28 31.03 6.37L30.23 7.57C30.11 7.75 30.06 7.97 30.1 8.18C30.13 8.4 30.25 8.59 30.42 8.72L31.24 9.33C31.76 9.72 32.11 10.29 32.22 10.93C32.33 11.57 32.19 12.22 31.83 12.76L31.03 13.96C30.95 14.08 30.85 14.17 30.72 14.24C30.6 14.31 30.46 14.34 30.32 14.34Z" fill="#E0E2E5" fill-opacity="1.000000" fill-rule="nonzero"/>
		<path id="Vector" d="M51.46 25.31L42.18 25.31C41.96 25.31 41.74 25.22 41.59 25.06C41.43 24.9 41.34 24.69 41.34 24.46C41.34 24.24 41.43 24.03 41.59 23.87C41.74 23.71 41.96 23.62 42.18 23.62L51.46 23.62C51.69 23.62 51.9 23.71 52.06 23.87C52.22 24.03 52.31 24.24 52.31 24.46C52.31 24.69 52.22 24.9 52.06 25.06C51.9 25.22 51.69 25.31 51.46 25.31Z" fill="#E0E2E5" fill-opacity="1.000000" fill-rule="nonzero"/>
		<path id="Vector" d="M45.56 35.43L40.5 35.43C40.27 35.43 40.06 35.34 39.9 35.19C39.74 35.03 39.65 34.81 39.65 34.59C39.65 34.37 39.74 34.15 39.9 33.99C40.06 33.83 40.27 33.75 40.5 33.75L45.56 33.75C45.78 33.75 46 33.83 46.15 33.99C46.31 34.15 46.4 34.37 46.4 34.59C46.4 34.81 46.31 35.03 46.15 35.19C46 35.34 45.78 35.43 45.56 35.43Z" fill="#E0E2E5" fill-opacity="1.000000" fill-rule="nonzero"/>
		<path id="Vector" d="M51.46 48.93L2.53 48.93C2.3 48.93 2.09 48.84 1.93 48.69C1.77 48.53 1.68 48.31 1.68 48.09C1.68 47.87 1.77 47.65 1.93 47.49C2.09 47.33 2.3 47.25 2.53 47.25L51.46 47.25C51.69 47.25 51.9 47.33 52.06 47.49C52.22 47.65 52.31 47.87 52.31 48.09C52.31 48.31 52.22 48.53 52.06 48.69C51.9 48.84 51.69 48.93 51.46 48.93Z" fill="#C2C5C6" fill-opacity="1.000000" fill-rule="nonzero"/>
		<path id="Vector" d="M2.53 39.65L44.71 39.65L44.71 41.34C44.71 41.79 44.54 42.22 44.22 42.53C43.9 42.85 43.47 43.03 43.03 43.03L4.21 43.03C3.77 43.03 3.34 42.85 3.02 42.53C2.7 42.22 2.53 41.79 2.53 41.34L2.53 39.65Z" fill="#FDD14B" fill-opacity="1.000000" fill-rule="nonzero"/>
		<path id="Vector" d="M41.34 43.03C41.34 45.82 39.07 48.09 36.28 48.09C33.48 48.09 31.21 45.82 31.21 43.03C31.21 40.23 33.48 37.96 36.28 37.96C39.07 37.96 41.34 40.23 41.34 43.03Z" fill="#6A7073" fill-opacity="1.000000" fill-rule="evenodd"/>
		<path id="Vector" d="M37.96 43.03C37.96 43.96 37.21 44.71 36.28 44.71C35.34 44.71 34.59 43.96 34.59 43.03C34.59 42.09 35.34 41.34 36.28 41.34C37.21 41.34 37.96 42.09 37.96 43.03Z" fill="#99A2A7" fill-opacity="1.000000" fill-rule="evenodd"/>
		<path id="Vector" d="M16.03 43.03C16.03 45.82 13.76 48.09 10.96 48.09C8.17 48.09 5.9 45.82 5.9 43.03C5.9 40.23 8.17 37.96 10.96 37.96C13.76 37.96 16.03 40.23 16.03 43.03Z" fill="#6A7073" fill-opacity="1.000000" fill-rule="evenodd"/>
		<path id="Vector" d="M12.65 43.03C12.65 43.96 11.9 44.71 10.96 44.71C10.03 44.71 9.28 43.96 9.28 43.03C9.28 42.09 10.03 41.34 10.96 41.34C11.9 41.34 12.65 42.09 12.65 43.03Z" fill="#99A2A7" fill-opacity="1.000000" fill-rule="evenodd"/>
		<path id="Vector" d="" fill="#EA8333" fill-opacity="1.000000" fill-rule="nonzero"/>
		<path id="Vector" d="M16.03 36.28L31.21 36.28L31.21 37.96C31.21 38.41 31.04 38.84 30.72 39.16C30.4 39.47 29.97 39.65 29.53 39.65L17.71 39.65C17.27 39.65 16.84 39.47 16.52 39.16C16.2 38.84 16.03 38.41 16.03 37.96L16.03 36.28Z" fill="#EA8333" fill-opacity="1.000000" fill-rule="nonzero"/>
		<path id="Vector" d="M30.52 32.9C31.37 32.9 32.06 33.66 32.06 34.59C32.06 35.52 31.37 36.28 30.52 36.28L16.72 36.28C15.87 36.28 15.18 35.52 15.18 34.59C15.18 33.66 15.87 32.9 16.72 32.9L30.52 32.9Z" fill="#794832" fill-opacity="1.000000" fill-rule="nonzero"/>
		<path id="Vector" d="M16.87 29.53L30.37 29.53L30.37 32.9L16.87 32.9L16.87 29.53Z" fill="#FDD14B" fill-opacity="1.000000" fill-rule="nonzero"/>
		<path id="Vector" d="M32.9 30.37C32.9 31.77 31.71 32.9 30.25 32.9C29.82 32.9 29.39 32.8 29.01 32.61C28.62 32.41 28.29 32.12 28.04 31.77C27.79 32.12 27.46 32.4 27.07 32.6C26.69 32.8 26.26 32.9 25.83 32.9C25.4 32.9 24.97 32.8 24.59 32.6C24.2 32.4 23.87 32.12 23.62 31.77C23.37 32.12 23.04 32.4 22.65 32.6C22.27 32.8 21.84 32.9 21.41 32.9C20.98 32.9 20.55 32.8 20.17 32.6C19.79 32.4 19.45 32.12 19.2 31.77C18.95 32.12 18.62 32.41 18.23 32.61C17.85 32.8 17.42 32.9 16.99 32.9C15.53 32.9 14.34 31.77 14.34 30.37C14.34 30.15 14.43 29.93 14.59 29.77C14.74 29.62 14.96 29.53 15.18 29.53L32.06 29.53C32.28 29.53 32.5 29.62 32.65 29.77C32.81 29.93 32.9 30.15 32.9 30.37Z" fill="#3BA673" fill-opacity="1.000000" fill-rule="nonzero"/>
		<path id="Vector" d="M31.21 22.78L31.21 16.03C31.21 15.86 31.26 15.69 31.36 15.55C31.45 15.41 31.59 15.31 31.74 15.24L35.96 13.56C36.07 13.51 36.18 13.49 36.29 13.5C36.4 13.5 36.51 13.52 36.61 13.56C36.71 13.61 36.8 13.67 36.88 13.75C36.96 13.83 37.02 13.92 37.06 14.03C37.1 14.13 37.12 14.24 37.12 14.35C37.12 14.46 37.1 14.57 37.05 14.67C37.01 14.77 36.94 14.87 36.87 14.94C36.79 15.02 36.69 15.08 36.59 15.12L32.9 16.6L32.9 22.78L31.21 22.78Z" fill="#E74444" fill-opacity="1.000000" fill-rule="nonzero"/>
		<path id="Vector" d="M31.21 19.4L32.9 19.4L32.9 22.78L31.21 22.78L31.21 19.4Z" fill="#CE3536" fill-opacity="1.000000" fill-rule="nonzero"/>
	</g>
</svg>
